<?xml version="1.0" standalone="no"?>
<!DOCTYPE svg PUBLIC "-//W3C//DTD SVG 1.1//EN" "http://www.w3.org/Graphics/SVG/1.1/DTD/svg11.dtd" >
<svg xmlns="http://www.w3.org/2000/svg">
<metadata>
Created by FontForge 20120731 at Mon Sep 26 11:15:55 2016
 By admin
</metadata>
<defs>
<font id="ifanrx" horiz-adv-x="1024" >
  <font-face 
    font-family="ifanrx"
    font-weight="500"
    font-stretch="normal"
    units-per-em="1024"
    panose-1="2 0 6 3 0 0 0 0 0 0"
    ascent="896"
    descent="-128"
    x-height="792"
    bbox="-0.583333 -211 1229.58 896"
    underline-thickness="50"
    underline-position="-100"
    unicode-range="U+0078-E63D"
  />
<missing-glyph horiz-adv-x="374" 
d="M34 0v682h272v-682h-272zM68 34h204v614h-204v-614z" />
    <glyph glyph-name=".notdef" horiz-adv-x="374" 
d="M34 0v682h272v-682h-272zM68 34h204v614h-204v-614z" />
    <glyph glyph-name=".null" horiz-adv-x="0" 
 />
    <glyph glyph-name="nonmarkingreturn" horiz-adv-x="341" 
 />
    <glyph glyph-name="x" unicode="x" horiz-adv-x="1001" 
d="M281 543q-27 -1 -53 -1h-83q-18 0 -36.5 -6t-32.5 -18.5t-23 -32t-9 -45.5v-76h912v41q0 16 -0.5 30t-0.5 18q0 13 -5 29t-17 29.5t-31.5 22.5t-49.5 9h-133v-97h-438v97zM955 310v-52q0 -23 0.5 -52t0.5 -58t-10.5 -47.5t-26 -30t-33 -16t-31.5 -4.5q-14 -1 -29.5 -0.5
t-29.5 0.5h-32l-45 128h-439l-44 -128h-29h-34q-20 0 -45 1q-25 0 -41 9.5t-25.5 23t-13.5 29.5t-4 30v167h911zM163 247q-12 0 -21 -8.5t-9 -21.5t9 -21.5t21 -8.5q13 0 22 8.5t9 21.5t-9 21.5t-22 8.5zM316 123q-8 -26 -14 -48q-5 -19 -10.5 -37t-7.5 -25t-3 -15t1 -14.5
t9.5 -10.5t21.5 -4h37h67h81h80h64h36q23 0 34 12t2 38q-5 13 -9.5 30.5t-9.5 34.5q-5 19 -11 39h-368zM336 498v228q0 11 2.5 23t10 21.5t20.5 15.5t34 6h188q31 0 51.5 -14.5t20.5 -52.5v-227h-327z" />
    <glyph glyph-name="uniE600" unicode="&#xe600;" 
d="M896 -47h-768q-53 0 -90.5 35t-37.5 85v494l474 -278l6 -6q12 -12 30 -12t30 12l485 283v-493q0 -50 -38 -85t-91 -35zM512 338l-482 283q-12 12 -30 12v39q0 50 37.5 85t90.5 35h768q53 0 91 -35t38 -85v-40q-17 0 -29 -11z" />
    <glyph glyph-name="uniE601" unicode="&#xe601;" 
d="M766 257h-254v-127h254v127zM957 893h-763q-26 0 -45 -18.5t-19 -45.5v-63h-63q-27 0 -45.5 -19t-18.5 -45v-763q0 -27 18.5 -45.5t45.5 -18.5h63h827q27 0 45.5 18.5t18.5 45.5v827v63q0 27 -18.5 45.5t-45.5 18.5zM258 2h-128v636h128v-636zM894 2h-509v764h509v-764z
M766 638h-254v-127h254v127zM766 448h-254v-128h254v128z" />
    <glyph glyph-name="uniE602" unicode="&#xe602;" 
d="M851 893h-678q-56 0 -96 -40t-40 -96v-746q0 -56 40 -96t96 -40h678q56 0 96 40t40 96v746q0 56 -40 96t-96 40zM309 11h-68q-28 0 -48 20t-20 48t20 48t48 20h68q28 0 47.5 -20t19.5 -48t-19.5 -48t-47.5 -20zM512 282h-271q-28 0 -48 20t-20 48t20 48t48 20h271
q28 0 48 -20t20 -48t-20 -48t-48 -20zM783 282h-68q-28 0 -47.5 20t-19.5 48t19.5 48t47.5 20h68q28 0 48 -20t20 -48t-20 -48t-48 -20zM783 554h-542q-28 0 -48 19.5t-20 47.5t20 48t48 20h542q28 0 48 -20t20 -48t-20 -47.5t-48 -19.5z" />
    <glyph glyph-name="uniE603" unicode="&#xe603;" 
d="M512 895q-104 0 -199 -40.5t-163.5 -109t-109 -163t-40.5 -198.5t40.5 -198.5t109 -163t163.5 -109t199 -40.5t199 40.5t163.5 109t109.5 163t41 198.5t-41 198.5t-109.5 163t-163.5 109t-199 40.5zM512.5 -59q-90.5 0 -173 35.5t-141.5 94.5t-94.5 141t-35.5 172
t35.5 172t94.5 141t141.5 94.5t173 35.5t172.5 -35.5t141.5 -94.5t94.5 -141t35 -172t-35 -172t-94.5 -141t-141.5 -94.5t-172.5 -35.5zM717 418h-333l135 134q10 10 10 24.5t-10 24.5t-24 10t-24 -10l-193 -193q-10 -10 -10 -24t10 -24l193 -193q10 -10 24 -10t24 10
t10 24.5t-10 23.5l-135 135h333q14 0 24 10t10 24t-10 24t-24 10z" />
    <glyph glyph-name="uniE604" unicode="&#xe604;" 
d="M510.5 893q-103.5 0 -197.5 -40.5t-162 -108.5t-108.5 -162.5t-40.5 -197.5t40.5 -197.5t108.5 -162.5t162 -108.5t197.5 -40.5t198 40.5t162.5 108.5t108 162.5t40 197.5t-40 197.5t-108 162.5t-162.5 108.5t-198 40.5zM510.5 -91q-96.5 0 -184.5 38t-151.5 101.5
t-101 151t-37.5 184.5t37.5 184.5t101 151t151.5 101.5t184.5 38t184.5 -38t151.5 -101.5t101 -151t37.5 -184.5t-37.5 -184.5t-101 -151t-151.5 -101.5t-184.5 -38zM713.5 389q-0.5 2 -0.5 2.5t-1 2.5t-1 3l-1 1v1l-2 2l-2 2l-2 2l-2 2q-1 0 -1 1l-242 140q-4 3 -8 4
q-2 1 -4 1h-3v1h-1h-1v-1h-3h-2q-2 -1 -4 -1h-1v-1q-2 0 -4 -2h-1l-3 -3l-1 -1l-2 -2l-1 -2v-1h-1v-2q-1 -1 -1.5 -2t-1 -2.5t-0.5 -2.5v-3v-2v-284v-2v-3q0 -1 0.5 -2.5t1 -2.5t1.5 -2v-2h1v-1l1 -2l2 -2l1 -1l3 -3h1q2 -2 4 -2v-1h1q2 -1 4 -1h2h3v-1h1h1v1h3q2 0 4 1
q4 1 8 4l242 141h1l2 2l2 2l2 2l2 2v1l1 1q0 1 1 3t1 2.5t0.5 2.5t0.5 3v2v2q0 1 -0.5 3z" />
    <glyph glyph-name="uniE605" unicode="&#xe605;" 
d="M553 601q-10 10 -24 10t-24 -10t-10 -24.5t10 -23.5l135 -135h-333q-14 0 -24 -10t-10 -24t10 -24t24 -10h333l-135 -134q-10 -10 -10 -24.5t10 -24.5t24 -10t24 10l194 193q10 10 10 24t-10 24zM512 895q-104 0 -199 -40.5t-163.5 -109t-109 -163t-40.5 -198.5
t40.5 -198.5t109 -163t163.5 -109t199 -40.5t199 40.5t163.5 109t109.5 163t41 198.5t-41 198.5t-109.5 163t-163.5 109t-199 40.5zM512.5 -59q-90.5 0 -173 35.5t-141.5 94.5t-94.5 141t-35.5 172t35.5 172t94.5 141t141.5 94.5t173 35.5t172.5 -35.5t141.5 -94.5
t94.5 -141t35 -172t-35 -172t-94.5 -141t-141.5 -94.5t-172.5 -35.5z" />
    <glyph glyph-name="uniE606" unicode="&#xe606;" 
d="M108 -125h202v1018h-202v-1018zM714 893v-1018h202v1018h-202z" />
    <glyph glyph-name="uniE607" unicode="&#xe607;" 
d="M43 352q0 -40 28 -68t67.5 -28t68 28t28.5 68t-28.5 68t-68 28t-67.5 -28t-28 -68zM427 352q0 -40 28 -68t67.5 -28t68 28t28.5 68t-28.5 68t-68 28t-67.5 -28t-28 -68zM811 352q0 -40 28 -68t67.5 -28t68 28t28.5 68t-28.5 68t-68 28t-67.5 -28t-28 -68z" />
    <glyph glyph-name="uniE608" unicode="&#xe608;" 
d="M158 387v-418q0 -62 49 -85t95 15q16 13 182 144q309 246 328 261q54 43 54.5 79.5t-50.5 77.5q-195 156 -524 416q-16 13 -36 15q-41 6 -69.5 -19.5t-28.5 -68.5v-417z" />
    <glyph glyph-name="uniE609" unicode="&#xe609;" horiz-adv-x="1230" 
d="M148 896q-99 0 -134 -56.5t14 -136.5l467 -751q49 -80 119.5 -80t119.5 80l467 751q49 80 14 136.5t-133 56.5h-934z" />
    <glyph glyph-name="uniE60A" unicode="&#xe60a;" horiz-adv-x="1228" 
d="M147 -128q-98 0 -133 56.5t14 136.5l467 752q49 79 119 79t119 -79l467 -752q49 -80 14 -136.5t-134 -56.5h-933z" />
    <glyph glyph-name="uniE60B" unicode="&#xe60b;" 
d="M68 861q-26 0 -44.5 -17.5t-18.5 -41.5v-834q0 -25 18.5 -42.5t44.5 -17.5h890q26 0 44.5 17.5t18.5 42.5v834q0 24 -18.5 41.5t-44.5 17.5h-890zM908 491h-790v264h790v-264zM795 649h-282v-53h282v53zM428 649h-56v-53h56v53zM287 649h-56v-52h56v52z" />
    <glyph glyph-name="uniE60C" unicode="&#xe60c;" 
d="M247 383l513 513l36 -36l-476 -477l475 -475l-37 -36z" />
    <glyph glyph-name="uniE60D" unicode="&#xe60d;" 
d="M563 128h460v765h-1020v-765h204v-255h66z" />
    <glyph glyph-name="uniE60E" unicode="&#xe60e;" 
d="M108 859q0 11 9 16t18 -1l768 -481q8 -5 8 -14.5t-8 -15.5l-768 -481q-9 -5 -18 0t-9 15v962z" />
    <glyph glyph-name="uniE60F" unicode="&#xe60f;" 
d="M694 810q56 1 92.5 -16t72.5 -50q44 4 107 36q20 11 26 14q-23 -64 -67 -98q-20 -14 -23 -16q20 0 39.5 5t44.5 14.5t34 12.5v-1q-31 -49 -71 -81q-6 -5 -18.5 -15t-13.5 -11q1 -86 -10 -134q-39 -177 -142.5 -294t-266.5 -168q-62 -19 -143.5 -23.5t-152.5 11.5
q-72 18 -123 40q-32 14 -59 30q-11 7 -18 12q1 0 32.5 -3t34.5 0q9 2 29 3t30 4q77 17 126 45q4 2 14 7.5t16.5 9.5t14 9.5t11.5 10.5q-29 -1 -62 11q-49 18 -81 50.5t-51 83.5q78 -9 93 4q-27 1 -69 27q-98 62 -98 179q7 -3 22 -10q14 -6 43 -12q23 -5 29 -3h-1
q-5 6 -19 16.5t-19 17.5q-73 90 -47 189q6 25 22 55v-1h1q3 -5 10.5 -12.5t8.5 -9.5q24 -29 62 -59q60 -47 118 -75.5t138 -48.5q49 -12 93 -12q-6 22 -5.5 49.5t6.5 48.5q29 101 119 140q19 9 46 15q8 1 25 3z" />
    <glyph glyph-name="uniE610" unicode="&#xe610;" 
d="M170 685h90q10 0 10 9v1q-2 78 -2 98v1q0 25 11 46l3 5h-1l-176 -174l-1 -1q9 4 10 4q23 11 56 11zM873 704q-9 50 -50 65q-35 12 -125 23q-54 6 -132 4q-2 19 -14.5 36t-28.5 23q-26 10 -62 14t-62.5 2.5t-39.5 -5.5q-33 -9 -48 -30q-12 -18 -12 -43v-57q1 -6 1 -12v-12
v-9v-7v-2q0 -15 -10.5 -25t-25.5 -10h-90q-27 0 -45 -9q-16 -7 -26 -20q-14 -19 -14 -57q0 -16 4 -49q7 -47 23.5 -133t33.5 -119q7 -17 14.5 -24.5t21.5 -14.5q30 -13 90 -26.5t100 -18.5q8 -1 21.5 -3.5t20 -3t16 -0.5t15 2.5t11 8t10.5 14.5q0 1 8 22q17 53 17 116
q0 3 2 3t2 -3v-4q0 -91 52 -110q29 -10 114 -20q24 -3 38 -11.5t24 -37.5t10 -80q0 -48 -15.5 -61t-69.5 -13h-32q-7 0 -20.5 2t-17 6.5t-7.5 13.5t-4 22q0 7 1.5 11.5t4.5 8t5 6t7.5 4t8 2.5t9.5 1.5t9 0.5h10h10q5 0 6 2.5t-1 12t-2 17.5q0 6 1.5 12.5t3 10.5t2 7t-0.5 5
t-5 2q-29 0 -52.5 -0.5t-41.5 -6.5t-30.5 -18t-19 -35.5t-6.5 -58.5q0 -78 35.5 -102.5t139.5 -24.5q27 0 41.5 0.5t33.5 3t29.5 8t23 15.5t21.5 25t18.5 36t18.5 50q27 85 42 245q6 62 -2 211t-18 202zM690 416q-19 0 -38 -3q8 60 54 58q48 -2 49 -69q-29 12 -65 14z" />
    <glyph glyph-name="uniE611" unicode="&#xe611;" 
d="M1009 651q-12 13 -30 12.5t-30 -12.5l-435 -439l-441 437q-12 12 -29.5 12t-30 -12.5t-12.5 -30t13 -29.5l468 -465q1 0 1.5 -0.5t1.5 -0.5v-1q12 -12 30 -12t30 13l464 468q13 13 12.5 30.5t-12.5 29.5zM1009 651z" />
    <glyph glyph-name="uniE612" unicode="&#xe612;" horiz-adv-x="1025" 
d="M758 395q-17 3 -22.5 10.5t-1.5 12.5l4 6q2 3 4 7.5t6.5 18t5 26.5t-5 29.5t-18.5 29.5q-16 16 -42.5 21.5t-52.5 1t-50 -11t-38 -12.5l-15 -6q-12 -4 -19.5 -5.5t-12 0.5t-6.5 3.5t-1.5 8t1 11t3 14.5t3.5 16q0 18 -2.5 33t-12.5 31.5t-26.5 25t-47 8t-71.5 -14.5
q-40 -14 -82 -42t-73.5 -57t-57.5 -58t-39 -45.5t-13 -17.5q-76 -102 -75 -193v-9q7 -56 34.5 -100.5t65.5 -72t89.5 -47t99 -28t100.5 -13.5q87 -6 179.5 14.5t173 71t113.5 120.5q19 41 19.5 77t-12 59t-33 40.5t-38.5 25.5t-33 11zM401 31q-125 -6 -214 49t-89 139
t88.5 144t214.5 66q129 6 216.5 -42.5t87.5 -130.5q0 -85 -89.5 -152t-214.5 -73zM368 355q-35 -4 -61.5 -16t-42 -28t-26 -34t-14.5 -35.5t-5 -32t-1 -23t1 -8.5v-6q0 -4 2 -14t6.5 -19t14 -19.5t22.5 -17.5q47 -26 97 -26.5t89 18.5t66 53q15 20 20.5 49t-2.5 59
t-26.5 54.5t-55 38t-84.5 7.5zM325.5 133.5q-23.5 -2.5 -40.5 9.5t-17 31q0 21 16 38t38 19q27 3 43.5 -10t16.5 -33t-16.5 -36t-40 -18.5zM425 218q-8 -6 -16.5 -5t-13.5 8q-4 7 -2 16.5t9 15.5q10 7 18.5 6t13 -8.5t2 -17t-10.5 -15.5zM840 463q11 0 18.5 7t9.5 16v3
q4 38 -2 67t-19 45t-30 26.5t-34.5 13.5t-32.5 3.5t-24 -0.5l-10 -1q-11 0 -19 -8.5t-8 -20t8 -19.5t19 -8q37 7 58 0.5t29.5 -22.5t10.5 -32.5t1 -29.5l-2 -12q0 -12 8 -20t19 -8zM820 786q-58 14 -138 -1l-2 -1h-1l-1 -1q-13 -4 -21.5 -14.5t-8.5 -24.5q0 -17 12 -28.5
t28 -11.5q22 3 37 8q6 1 20.5 2.5t38.5 -4.5t48 -15.5t49.5 -30.5t42.5 -50q31 -70 13 -134q-8 -19 -8 -39q0 -16 11.5 -26t28.5 -10t26 6.5t12 27.5h1q21 65 16 118t-23 92t-49.5 67.5t-64 45t-67.5 24.5z" />
    <glyph glyph-name="uniE613" unicode="&#xe613;" 
d="M757 456l-300 -215q14 -2 39 -5t103.5 -7.5t159.5 -3.5l-8 36l258 224q8 6 5 16t-13 11l-341 29l-134 315q-4 10 -14 10t-14 -10l-134 -315l-341 -29q-10 -1 -13 -11t5 -16l258 -224l-77 -334q-3 -10 5.5 -16t17.5 -1l293 177l293 -177q4 -2 8 -2q5 0 9 3q9 6 6 16
l-61 264q12 6 25.5 14.5t21.5 14.5l8 6q-2 -1 -7 -3t-25 -7t-45 -9.5t-69 -9t-95.5 -6.5t-126 -0.5t-158.5 7.5l298 216q-1 2 -13.5 5.5t-109 12t-263.5 13.5q-3 1 2 2q50 15 191 25q210 15 356 -16z" />
    <glyph glyph-name="uniE614" unicode="&#xe614;" 
d="M693 549q15 0 35 -2q-23 109 -127.5 181.5t-238.5 72.5q-98 0 -181 -40.5t-132 -111.5t-49 -156q0 -143 145 -245l-36 -109l127 64q6 -2 25 -5.5t27 -5t22.5 -4t26.5 -3t25 -0.5q16 0 34 1q-11 38 -11 76q0 119 89.5 203t218.5 84zM498 647q21 0 33.5 -12.5t12.5 -33
t-12.5 -33t-33.5 -12.5t-37.5 13t-16.5 32.5t16.5 32.5t37.5 13zM245 556q-22 0 -38.5 13t-16.5 32.5t16.5 32.5t38.5 13q20 0 32.5 -12.5t12.5 -33t-12.5 -33t-32.5 -12.5zM1024 266q0 71 -43 132t-113.5 96t-151.5 35q-129 0 -218.5 -77t-89.5 -186t89.5 -186t218.5 -77
q37 0 109 18l99 -54l-27 90q127 96 127 209zM616 312q-13 0 -24.5 11t-11.5 24.5t11.5 25t24.5 11.5q20 0 33 -11t13 -25.5t-13 -25t-33 -10.5zM815 312q-13 0 -24.5 11t-11.5 24.5t11.5 25t24.5 11.5q20 0 33 -11t13 -25.5t-13 -25t-33 -10.5z" />
    <glyph glyph-name="uniE615" unicode="&#xe615;" horiz-adv-x="1025" 
d="M251 560v-644h-215v644h215zM264 759q1 -47 -32.5 -79t-88.5 -32h-1q-53 0 -85.5 32t-32.5 79q0 48 33.5 79.5t87.5 31.5t86.5 -31.5t32.5 -79.5zM1022 285v-369h-214v344q0 69 -26 107.5t-82 38.5q-41 0 -68.5 -22.5t-41.5 -55.5q-7 -19 -7 -53v-359h-214q1 259 1 420.5
t-1 192.5v31h214v-93h-2q13 20 27 36t37 34t56.5 28t74.5 10q111 0 178.5 -73.5t67.5 -216.5z" />
    <glyph glyph-name="uniE616" unicode="&#xe616;" 
d="M290 29.5q0 -55.5 -39 -94.5t-94.5 -39t-94 39t-38.5 94.5t38.5 94t94 38.5t94.5 -38.5t39 -94zM645 -56q1 -20 -12 -33q-12 -15 -32 -15h-94q-17 0 -29.5 11.5t-14.5 28.5q-15 159 -127.5 271.5t-271.5 128.5q-17 1 -28.5 13.5t-11.5 29.5v94q0 20 14 33q12 11 30 11h4
q111 -9 212 -55.5t179 -125.5q79 -79 126 -180t56 -212zM1000 -57q2 -19 -12 -33q-13 -14 -32 -14h-99q-18 0 -31 12t-14 30q-8 149 -70 283t-160.5 233t-233 160.5t-283.5 70.5q-17 1 -29 14t-12 30v99q0 20 14 32q12 13 30 13h2q182 -9 348 -83.5t295 -204.5
q130 -129 204 -295t83 -347z" />
    <glyph glyph-name="uniE617" unicode="&#xe617;" 
d="M31 884h962v-109h-962v109zM909 239v423h-794v-423h794zM230 554h565v-207h-565v207zM737 -5q53 80 98 184l-116 42q-45 -124 -105 -226h-201q-50 133 -113 226l-106 -42q66 -99 106 -184h-296v-107h1016v107h-70h-142h-71z" />
    <glyph glyph-name="uniE618" unicode="&#xe618;" 
d="M512 892zM1001 427q-194 182 -489 465q-7 -7 -85.5 -82t-202.5 -192.5t-202 -190.5q-18 -18 -18 -43q0 -23 21 -43.5t42 -20.5h64v-412q0 -22 9.5 -27t34.5 -5h185q13 0 21 0.5t17.5 3.5t14 9.5t4.5 18.5v254h190v-254q0 -12 4.5 -18.5t14 -9.5t17.5 -3.5t21 -0.5h185
q17 0 24.5 1t13.5 8.5t6 22.5v412h64q21 0 42 20.5t21 43.5q0 26 -19 43z" />
    <glyph glyph-name="uniE619" unicode="&#xe619;" 
d="M43 710h187q17 0 29 11.5t12 28.5t-12 28.5t-29 11.5h-187q-17 0 -28.5 -11.5t-11.5 -28.5t11.5 -28.5t28.5 -11.5zM418 710h188q16 0 28 11.5t12 28.5t-12 28.5t-28 11.5h-188q-17 0 -28.5 -11.5t-11.5 -28.5t11.5 -28.5t28.5 -11.5zM793 710h188q16 0 28 11.5t12 28.5
t-12 28.5t-28 11.5h-188q-16 0 -28 -11.5t-12 -28.5t12 -28.5t28 -11.5zM793 67h-563q-16 0 -28 -12t-12 -28.5t12 -28.5t28 -12h563q17 0 28.5 12t11.5 28.5t-11.5 28.5t-28.5 12zM43 469h187q17 0 29 11.5t12 28t-12 28.5t-29 12h-187q-17 0 -28.5 -12t-11.5 -28.5
t11.5 -28t28.5 -11.5zM418 469h188q16 0 28 11.5t12 28t-12 28.5t-28 12h-188q-17 0 -28.5 -12t-11.5 -28.5t11.5 -28t28.5 -11.5zM981 549h-188q-16 0 -28 -12t-12 -28.5t12 -28t28 -11.5h188q16 0 28 11.5t12 28t-12 28.5t-28 12zM271 267.5q0 16.5 -12 28.5t-29 12h-187
q-17 0 -28.5 -12t-11.5 -28.5t11.5 -28.5t28.5 -12h187q17 0 29 12t12 28.5zM606 308h-188q-17 0 -28.5 -12t-11.5 -28.5t11.5 -28.5t28.5 -12h188q16 0 28 12t12 28.5t-12 28.5t-28 12zM981 308h-188q-16 0 -28 -12t-12 -28.5t12 -28.5t28 -12h188q16 0 28 12t12 28.5
t-12 28.5t-28 12z" />
    <glyph glyph-name="uniE61A" unicode="&#xe61a;" 
d="M199 441h-199v-114h199v114zM0 -128h398v398h-398v-398zM114 156h170v-170h-170v170zM398 896h-398v-398h398v398zM284 612h-170v170h170v-170zM740 156h113v114h-227v-227h114v113zM825 327h199v114h-199v-114zM910 -14h-284v-114h398v398h-114v-284zM626 896v-398h398
v398h-398zM910 612h-170v170h170v-170zM455 441h-142v-114h142v-171h114v456h-114v-171zM455 725h114v171h-114v-171zM455 -128h114v171h-114v-171z" />
    <glyph glyph-name="uniE61B" unicode="&#xe61b;" 
d="M1001 789l-85 86l-405 -407l-405 405l-84 -86l404 -404l-404 -406l84 -86l405 406l405 -404l85 86l-405 404z" />
    <glyph glyph-name="uniE61C" unicode="&#xe61c;" 
d="M787 453l-413 413q-29 29 -69.5 29t-69 -28.5t-28.5 -69t29 -69.5l344 -344l-344 -344q-29 -29 -29 -69t28.5 -69t69 -29t69.5 29l413 413q29 29 29 69t-29 69z" />
    <glyph glyph-name="uniE61D" unicode="&#xe61d;" 
d="M443 384l344 344q29 29 29 69t-28.5 69t-69 29t-69.5 -29l-413 -413q-29 -29 -29 -69t29 -69l413 -413q29 -29 69.5 -29t69 29t28.5 69t-29 69z" />
    <glyph glyph-name="uniE61E" unicode="&#xe61e;" 
d="M823 753q0 38 -24.5 60.5t-61.5 17.5q-17 -3 -31 -13q-289 -229 -460 -366q-46 -37 -45 -68.5t48 -69.5q16 -13 289 -230q145 -115 159 -127q40 -33 83 -13q44 21 44 75q-1 47 -1 367v367z" />
    <glyph glyph-name="uniE61F" unicode="&#xe61f;" 
d="M1009 546l8 16q6 18 6 34q0 40 -27.5 68.5t-66.5 28.5h-831q-39 0 -66.5 -28.5t-27.5 -68.5q0 -16 6 -34q1 -4 8 -16q2 -4 4 -7q1 -1 3 -4.5t3.5 -6t3.5 -4.5l410 -419q29 -30 71 -29q42 -1 71 29l410 419q2 2 4 4.5t3.5 6t2.5 4.5q3 3 5 7z" />
    <glyph glyph-name="uniE620" unicode="&#xe620;" 
d="M18 223q-7 -12 -8 -17q-6 -17 -6 -33q0 -40 27.5 -68.5t66.5 -28.5h831q39 0 66.5 28.5t27.5 68.5q0 16 -6 33q-2 5 -8 17q-2 4 -5 6q-1 2 -2.5 5.5t-3.5 6t-4 4.5l-410 419q-29 30 -71 29q-42 1 -71 -29l-410 -419q-2 -2 -3.5 -4.5t-3.5 -6t-3 -5.5q-2 -2 -4 -6z" />
    <glyph glyph-name="uniE621" unicode="&#xe621;" 
d="M1011 617l-265 265q-11 11 -27 11t-27 -11l-689 -689v-318h319l689 688q11 12 11 27.5t-11 26.5zM99 -30v155l155 -155h-155zM339 20l-190 191l441 441l191 -191zM849 529l-191 191l61 61l191 -191z" />
    <glyph glyph-name="uniE622" unicode="&#xe622;" 
d="M733 845q-52 0 -110 -34.5t-111 -87.5q-125 121 -223 121q-120 0 -199 -77q-87 -86 -87 -207.5t87 -206.5q6 -6 113 -120t202.5 -212t106.5 -98q4 0 24.5 18t50.5 47.5t67.5 67.5t75.5 77t75 77t65 67.5t46 48.5l18 19q87 86 87 207.5t-87 207.5q-86 85 -201 85z" />
    <glyph glyph-name="uniE623" unicode="&#xe623;" 
d="M285 -128l-36 36l475 475l-477 477l36 36l513 -513z" />
    <glyph glyph-name="uniE624" unicode="&#xe624;" 
d="M987 -91l-17 -18q-15 -14 -35 -14t-34 14l-208 208q-115 -81 -254 -81q-89 0 -170.5 35t-140 93.5t-93.5 140t-35 170.5t35 170.5t93.5 140t140 93.5t170.5 35t170.5 -35t140 -93.5t93.5 -140t35 -170.5q0 -154 -97 -274l206 -206q14 -14 14 -34t-14 -34zM439 774
q-131 0 -224 -93t-93 -224t93 -224t224 -93t224 93t93 224t-93 224t-224 93z" />
    <glyph glyph-name="uniE625" unicode="&#xe625;" horiz-adv-x="1025" 
d="M1002.5 405q-22.5 21 -54.5 21t-55 -21l-304 -286v770q0 7 -7 7h-138q-7 0 -7 -7v-771l-306 287q-22 21 -54 21t-54.5 -21t-22.5 -51t23 -51l435 -409q22 -21 54 -21t55 21l435 409q23 21 23 51t-22.5 51z" />
    <glyph glyph-name="uniE626" unicode="&#xe626;" horiz-adv-x="1025" 
d="M1 809v-154h1024v154h-1024zM608 463h-607v-154h607v154zM1 -36h1024v153h-1024v-153zM759 309h266v154h-266v-154z" />
    <glyph glyph-name="uniE627" unicode="&#xe627;" 
d="M411.5 698q-34.5 32 -79 49t-90 17t-87 -17t-70.5 -48q-29 -33 -44.5 -75t-15.5 -80q0 -36 13 -69.5t32.5 -57.5t53 -42t66.5 -25q-14 -41 -129 -141q-57 -48 -58.5 -97t39.5 -80q24 -19 50 -24t59.5 9.5t76.5 50.5t105 100q149 161 149 335q2 65 -17 114t-53.5 81z
M1003 617q-19 49 -54 81t-79 49t-89.5 17t-87.5 -17t-70 -48q-29 -33 -44.5 -75t-15.5 -80q0 -36 13 -69.5t32 -57.5t52.5 -42t67.5 -25q-14 -41 -129 -141q-58 -48 -59 -97t40 -80q24 -19 50 -24t59.5 9.5t76.5 50.5t105 100q149 161 149 335q2 65 -17 114z" />
    <glyph glyph-name="uniE628" unicode="&#xe628;" 
d="M1024 457h-439v439h-146v-439h-439v-146h439v-439h146v439h439v146z" />
    <glyph glyph-name="uniE629" unicode="&#xe629;" 
d="M174 686q16 0 39 1h52h58q24 -1 42.5 -1t32.5 -1q15 -1 26 -2q-2 9 -3 18.5t-1 17.5v112q0 8 1 18t3 18q-22 -3 -59.5 -4t-99.5 -1h-48q-21 0 -38.5 1t-32 1.5t-27.5 1.5v-39q13 1 32 1.5t49.5 1t74.5 0.5q45 1 106 1v-42q-50 0 -85 1h-63q-27 0 -43 1q-18 0 -29.5 0.5
t-18.5 0.5q-7 1 -13 2v-39q3 0 12 1q7 1 18.5 1.5t29.5 0.5h43q26 1 63 1h86v-41h-108q-44 1 -75 1q-30 1 -48.5 1.5t-31.5 2.5v-39q12 1 25.5 1.5t30.5 0.5zM142 575q13 -15 21.5 -29.5t14.5 -30.5l43 22q-10 12 -21 28q-12 16 -20 29zM200 601h129v-77q0 -5 -2 -8t-9 -5
t-21 -2.5t-38 0.5q11 -14 16 -25t8 -23q30 3 47 7t26 9t11 13.5t2 22.5v88q35 0 59.5 -0.5t44.5 -2.5v43q-20 -2 -44.5 -3.5t-59.5 -1.5v8q0 7 1.5 10.5t3.5 5.5q8 9 -7 8q-10 0 -20.5 0.5t-21.5 2.5q2 -8 2.5 -17t1.5 -18h-129q-49 0 -82 1t-52 3v-42q18 1 51.5 2t82.5 1z
M896 853q-13 9 -28 19.5t-30 18.5l-24 -30q29 -18 52 -39zM562.5 542.5q6.5 -9.5 13.5 -21.5q16 12 51.5 37.5t95.5 66.5v-101q0 -6 -1.5 -9.5t-7 -5.5t-16.5 -2h-27q10 -14 14.5 -25t6.5 -24q26 5 40.5 8t21.5 7.5t8.5 10.5t1.5 16v197q11 -34 25 -60t33 -47.5t44 -39.5
t59 -36q4 10 11 21.5t18 23.5q-38 15 -66 32t-50 40q23 23 37.5 37t23 21t13 9t8.5 3q8 2 8.5 6t-7.5 8q-12 6 -20.5 11.5t-18.5 13.5q-11 -20 -26.5 -40t-38.5 -44q-16 22 -29 50t-24 64v10q59 0 103 -1q43 -1 76 -4v44q-33 -2 -76 -3.5t-103 -1.5v53q0 6 1 8.5t4 5.5
q6 5 5 7t-10 2q-23 0 -43 5q1 -5 1 -10q0 -6 1 -15v-22v-34q-55 1 -96 2t-73 3v-44q32 3 73 3.5t96 1.5v-120q-16 -11 -37.5 -24t-44.5 -26q-24 -13 -48 -25.5t-46 -22.5q9 -10 15.5 -19.5zM648 654l31 32q-15 13 -32.5 25.5t-35.5 24.5l-30 -28q18 -10 35 -23.5t32 -30.5z
M229 121q-13 -7 -26.5 -12.5t-27.5 -10.5v74q16 -1 29 -2t23 -2v41q-10 -2 -23 -3q-12 0 -29 -1v66q0 7 1.5 10.5t6.5 7.5q14 11 -5 10q-10 0 -21.5 0.5t-23.5 2.5q1 -5 1.5 -10.5t1 -16t1.5 -27.5v-43q-26 0 -45 0.5t-33 3.5v-41q28 4 78 4v-87q-18 -5 -38 -10t-42 -10
q3 -11 6.5 -25t4.5 -25q18 9 34 16t35 15v-97q0 -10 -1.5 -15t-8 -8t-20 -4t-36.5 0q11 -13 16 -23.5t7 -23.5q28 4 44.5 8t24.5 10t10 16t2 25v126q13 5 27 10t32 10q-3 8 -4.5 19t-0.5 22zM400 -31q7 13 13.5 26.5t12.5 32t11 42.5t10 57q-12 -1 -27 -2t-32 -1h-96v120
h106q1 -9 0 -20.5t-3 -17.5q-3 -6 -7 -10t-11.5 -5.5t-18.5 -2.5t-28 -1q10 -11 15 -21t8 -21q23 5 37.5 9.5t23.5 10t13.5 13.5t6.5 18q1 8 3 19q1 11 2.5 22.5t2 22t0.5 18.5q-14 -1 -37 -2h-58h-57q-25 1 -39 2q1 -7 1.5 -20t0.5 -26v-278q0 -13 -1 -25q0 -15 -1 -27
q0 -13 -1 -29h42v33q8 -5 13 -11t8 -11q23 14 38 27.5t27 31.5q20 -23 39 -35.5t38 -21.5q3 10 9 20.5t18 20.5q-21 3 -42.5 14t-39.5 28zM326 -61.5q-18 -14.5 -34 -23.5v178h16q4 -20 9 -38.5t11 -35.5t13 -30t15 -21q-12 -15 -30 -29.5zM377 -5q-14 20 -22.5 45.5
t-12.5 52.5h60q-2 -31 -7.5 -54.5t-17.5 -43.5zM965 -72q-43 -8 -87 -10.5t-84 -1.5t-72.5 6.5t-51.5 13.5q-14 6 -22 10q-8 3 -15 5v125q0 20 1 32t3 24q-9 -2 -21.5 -3t-25.5 -1t-25.5 1t-23.5 3v-41q8 2 20.5 2.5t32.5 0.5v-146q-12 -5 -25.5 -15.5t-31.5 -27.5
q11 -7 20 -13.5t17 -14.5q9 14 16.5 23.5t14.5 13.5t14.5 4t16.5 -4q23 -10 43 -16.5t39.5 -11t41.5 -7t50 -3.5t63 -0.5t81 1.5q-1 11 1.5 23t9.5 28zM757 234l32 18q-5 8 -14.5 20t-17.5 21l-33 -20q10 -10 18.5 -19.5t14.5 -19.5zM825 202q44 -1 74.5 -1.5t55.5 -3.5v39
q-20 -1 -44 -2t-54 -1q7 12 12.5 19.5t9.5 12.5t7.5 8t7.5 5q7 4 -1 5q-12 3 -23.5 6.5t-21.5 8.5q-6 -21 -11.5 -35.5t-12.5 -30.5q-56 0 -94 1q-39 1 -69 3v-39q24 3 53.5 3.5t70.5 1.5q-2 -10 -4 -19.5t-5 -16.5q-25 0 -45 1t-33 2q2 -11 3 -24t1 -26v-117
q0 -21 -1 -35.5t-3 -32.5h40v22h140v-18h39q-1 17 -1.5 34t-0.5 34v113q0 27 2 50q-13 -2 -41 -3t-63 -1q3 8 5 18q3 11 7 19zM878 -16h-140v34h140v-34zM878 46h-140v33h140v-33zM878 137v-30h-140v30h140zM568 264q8 -18 15 -42t11 -48l43 10q-18 46 -29 91z" />
    <glyph glyph-name="uniE62A" unicode="&#xe62a;" 
d="M544 153l-416 462h768z" />
    <glyph glyph-name="uniE62B" unicode="&#xe62b;" horiz-adv-x="1036" 
d="M124 505h776v-60h-776v60zM900 445v299h-776v-299h-120v-120h120v-298h776v298h120v120h-120z" />
    <glyph glyph-name="uniE62C" unicode="&#xe62c;" horiz-adv-x="1025" 
d="M504.5 880q-102.5 0 -196 -40t-161 -108t-107.5 -161t-40 -196t40 -196.5t107.5 -161t161 -107.5t196 -40t196 40t161 107.5t107.5 161t40 196.5t-40 196t-107.5 161t-161 108t-196 40zM766 206q19 -19 19 -46t-19 -46.5t-46 -19.5t-46 20l-169 169l-169 -169
q-19 -19 -46 -19.5t-46.5 19t-19.5 46.5t20 46l169 169l-169 169q-20 19 -20 46t19 46t46.5 19t46.5 -19l169 -169l169 169q19 19 46 19t46 -19t19 -46t-19 -46l-169 -169z" />
    <glyph glyph-name="uniE62D" unicode="&#xe62d;" 
d="M512 896q-139 0 -257 -68.5t-186.5 -186.5t-68.5 -257t68.5 -257t186.5 -186.5t257 -68.5t257 68.5t186.5 186.5t68.5 257t-68.5 257t-186.5 186.5t-257 68.5zM512 -43q-116 0 -214 57.5t-155.5 155.5t-57.5 214t57.5 214t155.5 155.5t214 57.5t214 -57.5t155.5 -155.5
t57.5 -214t-57.5 -214t-155.5 -155.5t-214 -57.5zM744 272l-204 117v237q0 17 -12.5 29.5t-30 12.5t-30 -12.5t-12.5 -29.5v-256q0 -11 5 -20q5 -16 19 -24l222 -128q15 -9 32.5 -4.5t26 20t4 32.5t-19.5 26z" />
    <glyph glyph-name="uniE62E" unicode="&#xe62e;" horiz-adv-x="1026" 
d="M318 781q-61 0 -116 -33q-64 -39 -95.5 -111t-18.5 -149q14 -85 78 -153q134 -144 313 -334q13 -14 31 -14t31 14q218 231 324 347q85 92 68 219q-12 92 -78.5 153t-153.5 61q-52 0 -100 -25q-16 -9 -47 -32q-17 -12 -26 -19l-9 -6h-12q-15 0 -29 14q-69 68 -160 68z
M510.5 -98q-50.5 0 -86.5 38q-182 194 -321 343q-81 87 -99 196q-16 101 25.5 195.5t126.5 145.5q74 46 158 46q110 0 196 -74l1 1q36 27 57 38q66 35 138 35q117 0 206.5 -81.5t105.5 -203.5q21 -163 -89 -284q-114 -125 -332 -357q-36 -38 -86.5 -38z" />
    <glyph glyph-name="uniE62F" unicode="&#xe62f;" 
d="M1000 96l-128 247v242q0 84 -48 156t-131 113.5t-181 41.5t-181 -41.5t-131 -113.5t-48 -156v-241l-128 -248q-7 -15 3 -28.5t28 -13.5h221q38 -90 100 -136t136 -46t136 46t100 136h221q18 0 28.5 13.5t2.5 28.5zM512 -46q-53 0 -88 30.5t-53 70.5h277
q-45 -101 -136 -101zM722 137h-417h-168l96 186v255q0 71 41 126t104.5 82.5t134.5 27.5q72 0 134.5 -28t102.5 -83t40 -125v-255l98 -186h-166z" />
    <glyph glyph-name="uniE630" unicode="&#xe630;" 
d="M311 7q34 -62 87 -98t114 -36t114.5 36t86.5 98h-402zM314 75h-239q-18 0 -27.5 12.5t-2.5 26.5l122 237v231q0 81 46.5 149.5t126 108.5t173 40t172.5 -40t125.5 -108.5t46.5 -149.5v-231l122 -237q7 -14 -2.5 -26.5t-27.5 -12.5h-239h-396z" />
    <glyph glyph-name="uniE631" unicode="&#xe631;" 
d="M576 320h448v-448h-448v448zM576 896h448v-448h-448v448zM0 320h448v-448h-448v448zM0 896h448v-448h-448v448z" />
    <glyph glyph-name="uniE632" unicode="&#xe632;" 
d="M1024 175l-93 -93l-418 418l-418 -419l-94 94l511 511z" />
    <glyph glyph-name="uniE633" unicode="&#xe633;" 
d="M0 593l93 93l418 -418l418 419l94 -94l-511 -511z" />
    <glyph glyph-name="uniE634" unicode="&#xe634;" 
d="M799 168q90 119 90 268q0 90 -35 172t-94.5 141.5t-142 95t-172.5 35.5t-172 -35.5t-141.5 -95t-95 -141.5t-35.5 -172t35.5 -172.5t95 -142t141.5 -94.5t172 -35q149 0 268 90l208 -208l86 86zM445 91q-94 0 -173.5 46t-125.5 125.5t-46 173.5t46 173.5t125.5 125.5
t173.5 46t173.5 -46t125.5 -125.5t46 -173.5t-46 -173.5t-125.5 -125.5t-173.5 -46z" />
    <glyph glyph-name="uniE635" unicode="&#xe635;" 
d="M0 101h1024v-114h-1024v114zM0 442h1024v-114h-1024v114zM0 783h1024v-114h-1024v114z" />
    <glyph glyph-name="uniE636" unicode="&#xe636;" 
d="M0 129h1022v-256h-1022v256zM0 512h1022v-256h-1022v256zM0 895h1022v-256h-1022v256z" />
    <glyph glyph-name="uniE637" unicode="&#xe637;" 
d="M217 727l-217 -469v-214h328l175 394v289h-286zM737 727l-216 -469v-214h328l175 394v289h-287z" />
    <glyph glyph-name="uniE638" unicode="&#xe638;" 
d="M303 -128l-93 93l418 418l-419 418l94 94l511 -511z" />
    <glyph glyph-name="uniE639" unicode="&#xe639;" 
d="M582 637h-507v259h949v-129v-820h-259v507l-582 -582l-183 183z" />
    <glyph glyph-name="uniE63A" unicode="&#xe63a;" horiz-adv-x="1055" 
d="M899 812h-744q-64 0 -109.5 -45t-45.5 -108v-522q0 -65 46 -113.5t109 -48.5h217l155 -186l155 186h217q64 0 110 48.5t46 113.5v522q0 63 -45.5 108t-110.5 45z" />
    <glyph glyph-name="uniE63B" unicode="&#xe63b;" 
d="M352 238h193q0 20 -5.5 38t-10.5 26l-6 7h-167q4 91 9 227h159q-1 68 -19 68h-280q17 88 40 127q-4 0 -9.5 -0.5t-21.5 -5.5t-30 -15t-28.5 -32.5t-22.5 -53.5q-10 -39 -23.5 -75.5t-24 -57.5t-19 -38.5t-9.5 -19.5q-3 -8 11 -7t26 7q1 0 3 1q66 30 81 102h87
q4 -198 3 -227h-178q-11 -8 -19.5 -26t-11.5 -32l-3 -13h204q-18 -119 -44 -168q-4 -7 -15.5 -29t-17.5 -32t-20 -31t-28 -36.5t-37 -38t-52 -45.5l-3 -6q2 -7 44 -3q53 4 91 24.5t65 74.5q34 68 59 147v-1l168 -193q1 2 2 6l4 16q3 12 4.5 24t0.5 29.5t-6 33.5l-124 139
l-42 -31q19 67 23 117v3zM585 618v-669h70l29 -80l122 80h154v669h-375zM887 21h-80l-99 -66l-24 66h-25v522h228v-522z" />
    <glyph glyph-name="uniE63C" unicode="&#xe63c;" 
d="M725 896h-426q-71 0 -121 -50.5t-50 -121.5v-681q0 -71 50 -121t121 -50h426q71 0 121 50t50 121v681q0 71 -50 121.5t-121 50.5zM555 -43h-86v86h86v-86zM811 128h-598v597h598v-597z" />
    <glyph glyph-name="uniE63D" unicode="&#xe63d;" 
d="M512 896q-104 0 -199 -40.5t-163.5 -109t-109 -163.5t-40.5 -199t40.5 -199t109 -163.5t163.5 -109t199 -40.5t199 40.5t163.5 109t109 163.5t40.5 199t-40.5 199t-109 163.5t-163.5 109t-199 40.5zM683 365h-152v-152h-38v152h-152v38h152v152h38v-152h152v-38z" />
  </font>
</defs>
</svg>
